<?xml version="1.0" encoding="UTF-8" standalone="no"?>
<svg
   xmlns:dc="http://purl.org/dc/elements/1.1/"
   xmlns:cc="http://creativecommons.org/ns#"
   xmlns:rdf="http://www.w3.org/1999/02/22-rdf-syntax-ns#"
   xmlns:svg="http://www.w3.org/2000/svg"
   xmlns="http://www.w3.org/2000/svg"
   xmlns:sodipodi="http://sodipodi.sourceforge.net/DTD/sodipodi-0.dtd"
   xmlns:inkscape="http://www.inkscape.org/namespaces/inkscape"
   viewBox="0 0 1682.48 510.89"
   version="1.1"
   id="svg84"
   sodipodi:docname="Recurso 56-vector.svg"
   inkscape:version="0.92.2 2405546, 2018-03-11">
  <metadata
     id="metadata88">
    <rdf:RDF>
      <cc:Work
         rdf:about="">
        <dc:format>image/svg+xml</dc:format>
        <dc:type
           rdf:resource="http://purl.org/dc/dcmitype/StillImage" />
      </cc:Work>
    </rdf:RDF>
  </metadata>
  <sodipodi:namedview
     pagecolor="#ffffff"
     bordercolor="#666666"
     borderopacity="1"
     objecttolerance="10"
     gridtolerance="10"
     guidetolerance="10"
     inkscape:pageopacity="0"
     inkscape:pageshadow="2"
     inkscape:window-width="1870"
     inkscape:window-height="1011"
     id="namedview86"
     showgrid="false"
     inkscape:zoom="0.125"
     inkscape:cx="-158.63085"
     inkscape:cy="1044.5888"
     inkscape:window-x="50"
     inkscape:window-y="30"
     inkscape:window-maximized="1"
     inkscape:current-layer="svg84" />
  <defs
     id="defs4">
    <style
       id="style2">.cls-1{fill:none;}.cls-2{fill:#075da7;}.cls-3{fill:#01509a;}.cls-4{fill:#0970b4;}</style>
  </defs>
  <title
     id="title6">Recurso 56-vector</title>
  <g
     id="g331"
     transform="matrix(1,0,0,1.0015854,0,-0.81124455)">
    <path
       style="fill:#075da7"
       inkscape:connector-curvature="0"
       id="path64"
       d="M 117.87,446.93 0,480.76 v 30.13 l 49.62,-4.45 68.21,-58.78 c 0.02,-0.24 0.03,-0.49 0.04,-0.73 z"
       class="cls-2" />
    <path
       sodipodi:nodetypes="ccccc"
       style="fill:#075da7"
       inkscape:connector-curvature="0"
       id="path68"
       d="M -0.2967797,1.2230073 0,510.89 1682.48,360.13 V 2.8148256 Z"
       class="cls-2" />
    <g
       transform="translate(0,0.8148256)"
       id="g166"
       data-name="Capa 2">
      <g
         id="g164"
         data-name="Capa 1">
        <polygon
           style="fill:none"
           class="cls-1"
           points="386.65,476.24 115.35,320.19 "
           id="polygon90" />
        <polygon
           style="fill:#075da7"
           class="cls-2"
           points="1577.57,137.67 1577.57,137.68 "
           id="polygon92" />
        <polygon
           style="fill:#075da7"
           class="cls-2"
           points="836.97,91.1 836.98,91.11 837,91.11 "
           id="polygon94" />
        <path
           style="fill:#01509a"
           inkscape:connector-curvature="0"
           class="cls-3"
           d="m 1536.36,0 h -152.29 l 193.49,137.66 C 1564.34,91.94 1550.33,46 1536.36,0 Z"
           id="path96" />
        <polygon
           style="fill:#075da7"
           class="cls-2"
           points="1577.57,137.68 1577.57,137.67 1577.57,137.66 "
           id="polygon98" />
        <path
           style="fill:#0970b4"
           inkscape:connector-curvature="0"
           class="cls-4"
           d="m 1183.27,264.18 394.3,-126.51 v 0 L 1384.07,0 h -241.34 c 22.95,85.7 37.38,174 40.52,264.17 z"
           id="path100" />
        <path
           style="fill:#01509a"
           inkscape:connector-curvature="0"
           class="cls-3"
           d="M 1183.26,264.19 864.81,433.4 1178.7,405.28 a 1042.94,1042.94 0 0 0 4.56,-141.09 z"
           id="path102" />
        <path
           style="fill:#01509a"
           inkscape:connector-curvature="0"
           class="cls-3"
           d="m 837,91.12 -721.65,229.07 618.25,125 88.4,-7.96 C 881.38,281.3 877.87,174 837,91.12 Z"
           id="path104" />
        <polygon
           style="fill:#075da7"
           class="cls-2"
           points="836.98,91.11 836.98,91.12 837,91.11 "
           id="polygon106" />
        <path
           style="fill:#075da7"
           inkscape:connector-curvature="0"
           class="cls-2"
           d="M 1183.26,264.18 837,91.11 v 0 C 877.87,174 881.38,281.3 822,437.23 l 42.76,-3.83 318.45,-169.21 z"
           id="path108" />
        <path
           style="fill:#075da7"
           inkscape:connector-curvature="0"
           class="cls-2"
           d="m 1577.57,137.67 -394.3,126.51 v 0 a 1042.94,1042.94 0 0 1 -4.57,141.08 l 19.26,-1.73 379.61,-265.87 z"
           id="path110" />
        <path
           style="fill:#01509a"
           inkscape:connector-curvature="0"
           class="cls-3"
           d="M 98.48,210.65 837,91.11 v 0 L 550.52,0 H 27.15 c 31,67.14 55.44,137.41 71.29,210.62 z"
           id="path112" />
        <path
           style="fill:#075da7"
           inkscape:connector-curvature="0"
           class="cls-2"
           d="m 119.1,446.57 -1.21,-0.16 v 0.51 z"
           id="path114" />
        <path
           style="fill:#075da7"
           inkscape:connector-curvature="0"
           class="cls-2"
           d="m 117.84,447.66 1.27,-1.09 -1.23,0.35 c -0.02,0.25 -0.03,0.5 -0.04,0.74 z"
           id="path116" />
        <polygon
           style="fill:#075da7"
           class="cls-2"
           points="98.48,210.65 98.44,210.62 98.44,210.65 "
           id="polygon118" />
        <path
           style="fill:#01509a"
           inkscape:connector-curvature="0"
           class="cls-3"
           d="m 837,91.11 346.26,173.06 v 0 L 789.68,0 h -19.89 c 27.48,27.39 50.46,57.21 67.21,91.1 z"
           id="path120" />
        <path
           style="fill:#075da7"
           inkscape:connector-curvature="0"
           class="cls-2"
           d="M 1142.73,0 H 789.68 l 393.58,264.17 C 1180.11,174 1165.68,85.7 1142.73,0 Z"
           id="path122" />
        <polygon
           style="fill:#075da7"
           class="cls-2"
           points="1183.26,264.18 1183.26,264.19 1183.27,264.18 "
           id="polygon124" />
        <polygon
           style="fill:#075da7"
           class="cls-2"
           points="1183.26,264.17 1183.26,264.18 1183.27,264.18 "
           id="polygon126" />
        <path
           style="fill:#075da7"
           inkscape:connector-curvature="0"
           class="cls-2"
           d="M 769.79,0 H 550.52 L 837,91.1 C 820.25,57.21 797.27,27.39 769.79,0 Z"
           id="path128" />
        <polygon
           style="fill:#075da7"
           class="cls-2"
           points="115.35,320.19 386.65,476.24 733.59,445.15 "
           id="polygon130" />
        <path
           style="fill:#0970b4"
           inkscape:connector-curvature="0"
           class="cls-4"
           d="m 49.62,506.44 63.91,-5.73 q 3,-26.72 4.3,-53.05 z"
           id="path132" />
        <path
           style="fill:#075da7"
           inkscape:connector-curvature="0"
           class="cls-2"
           d="M 27.15,0 H 0 v 131 l 98.44,79.6 C 82.59,137.41 58.15,67.14 27.15,0 Z"
           id="path134" />
        <path
           style="fill:#0970b4"
           inkscape:connector-curvature="0"
           class="cls-4"
           d="M 117.9,446.41 0,430.58 v 50.18 l 117.87,-33.83 z"
           id="path136" />
        <polygon
           style="fill:#01509a"
           class="cls-3"
           points="0,131.02 0,192.4 98.44,210.65 98.44,210.62 "
           id="polygon138" />
        <path
           style="fill:#01509a"
           inkscape:connector-curvature="0"
           class="cls-3"
           d="M 98.45,210.66 0,241.18 v 90.33 L 115.29,320.2 A 912.39,912.39 0 0 0 98.45,210.66 Z"
           id="path140" />
        <path
           style="fill:#075da7"
           inkscape:connector-curvature="0"
           class="cls-2"
           d="M 98.44,210.65 0,192.4 v 48.78 l 98.45,-30.52 z"
           id="path142" />
        <path
           style="fill:#075da7"
           inkscape:connector-curvature="0"
           class="cls-2"
           d="M 115.29,320.2 0,331.51 v 99.07 l 117.9,15.83 A 892,892 0 0 0 115.29,320.2 Z"
           id="path144" />
        <path
           style="fill:#075da7"
           inkscape:connector-curvature="0"
           class="cls-2"
           d="M 117.87,446.93 0,480.76 v 30.13 l 49.62,-4.45 68.21,-58.78 c 0.02,-0.24 0.03,-0.49 0.04,-0.73 z"
           id="path146" />
        <path
           style="fill:#075da7"
           inkscape:connector-curvature="0"
           class="cls-2"
           d="m 117.84,447.66 q -1.35,26.32 -4.3,53.05 L 237,489.65 119.1,446.57 Z"
           id="path148" />
        <path
           style="fill:#075da7"
           inkscape:connector-curvature="0"
           class="cls-2"
           d="m 1577.57,137.68 c 22.12,76.45 42,152.31 55.91,226.84 l 49,-4.39 V 190.94 Z"
           id="path150" />
        <path
           style="fill:#0970b4"
           inkscape:connector-curvature="0"
           class="cls-4"
           d="m 1198,403.55 435.52,-39 c -13.88,-74.53 -33.79,-150.39 -55.91,-226.84 z"
           id="path152" />
        <path
           style="fill:#075da7"
           inkscape:connector-curvature="0"
           class="cls-2"
           d="m 1536.36,0 c 14,46 28,91.94 41.2,137.66 v 0 l 104.91,53.26 V 123.11 L 1568.34,0 Z"
           id="path154" />
        <path
           style="fill:#075da7"
           inkscape:connector-curvature="0"
           class="cls-2"
           d="m 98.48,210.65 v 0 a 912.39,912.39 0 0 1 16.81,109.55 h 0.06 L 837,91.12 v 0 z"
           id="path156" />
        <path
           style="fill:#01509a"
           inkscape:connector-curvature="0"
           class="cls-3"
           d="m 115.29,320.2 a 892,892 0 0 1 2.61,126.21 l 1.21,0.16 117.89,43.08 149.65,-13.41 -271.3,-156 z"
           id="path158" />
        <path
           style="fill:#075da7"
           inkscape:connector-curvature="0"
           class="cls-2"
           d="M 98.44,210.65 Z"
           id="path160" />
        <polygon
           style="fill:#01509a"
           class="cls-3"
           points="1568.34,0 1682.48,123.11 1682.48,0 "
           id="polygon162" />
      </g>
    </g>
  </g>
</svg>
